<svg version="1.1" xmlns="http://www.w3.org/2000/svg" xmlns:xlink="http://www.w3.org/1999/xlink" width="788" height="662"><defs/><g><g/><g/><g/><g/><g/><g/><g/><g/><g/><g><rect fill="white" stroke="none" x="0" y="0" width="788" height="662"/></g><g/><g><path fill="none" stroke="black" paint-order="fill stroke markers" d=" M 43.21930029000001 63.51880975500001 L 43.21930029000001 662.8951154550001" stroke-miterlimit="10" stroke-width="1.5706926250000002" stroke-dasharray="14.498701153846154,6.282770500000001"/><path fill="none" stroke="black" paint-order="fill stroke markers" d=" M 339.32407707125003 63.51880975500001 L 339.32407707125003 662.8951154550001" stroke-miterlimit="10" stroke-width="1.5706926250000002" stroke-dasharray="14.498701153846154,6.282770500000001"/><path fill="none" stroke="black" paint-order="fill stroke markers" d=" M 442.60978357125003 63.51880975500001 L 442.60978357125003 662.8951154550001" stroke-miterlimit="10" stroke-width="1.5706926250000002" stroke-dasharray="14.498701153846154,6.282770500000001"/><path fill="none" stroke="black" paint-order="fill stroke markers" d=" M 730.0169114462501 63.51880975500001 L 730.0169114462501 662.8951154550001" stroke-miterlimit="10" stroke-width="1.5706926250000002" stroke-dasharray="14.498701153846154,6.282770500000001"/></g><g><path fill="none" stroke="none"/><g><path fill="white" stroke="black" paint-order="fill stroke markers" d=" M 9.424155750000004 12.628368704999998 L 77.01444483 12.628368704999998 L 77.01444483 63.51880975500001 L 9.424155750000004 63.51880975500001 L 9.424155750000004 12.628368704999998 Z" stroke-miterlimit="10" stroke-width="3.01572984" stroke-dasharray=""/></g><g><g/><text fill="black" stroke="none" font-family="sans-serif" font-size="11pt" font-style="normal" font-weight="normal" text-decoration="normal" x="29.874573727500007" y="44.67049825500001" text-anchor="start" dominant-baseline="alphabetic" xml:space="preserve">App</text></g><path fill="none" stroke="none"/><g><path fill="white" stroke="black" paint-order="fill stroke markers" d=" M 303.452516515625 12.628368704999998 L 375.195637626875 12.628368704999998 L 375.195637626875 63.51880975500001 L 303.452516515625 63.51880975500001 L 303.452516515625 12.628368704999998 Z" stroke-miterlimit="10" stroke-width="3.01572984" stroke-dasharray=""/></g><g><g/><text fill="black" stroke="none" font-family="sans-serif" font-size="11pt" font-style="normal" font-weight="normal" text-decoration="normal" x="323.90293449312503" y="44.67049825500001" text-anchor="start" dominant-baseline="alphabetic" xml:space="preserve">CSP</text></g><path fill="none" stroke="none"/><g><path fill="white" stroke="black" paint-order="fill stroke markers" d=" M 410.070742546875 12.628368704999998 L 475.148824595625 12.628368704999998 L 475.148824595625 63.51880975500001 L 410.070742546875 63.51880975500001 L 410.070742546875 12.628368704999998 Z" stroke-miterlimit="10" stroke-width="3.01572984" stroke-dasharray=""/></g><g><g/><text fill="black" stroke="none" font-family="sans-serif" font-size="11pt" font-style="normal" font-weight="normal" text-decoration="normal" x="430.52116052437503" y="44.67049825500001" text-anchor="start" dominant-baseline="alphabetic" xml:space="preserve">API</text></g><path fill="none" stroke="none"/><g><path fill="white" stroke="black" paint-order="fill stroke markers" d=" M 680.8079485468751 12.628368704999998 L 779.2258743456251 12.628368704999998 L 779.2258743456251 63.51880975500001 L 680.8079485468751 63.51880975500001 L 680.8079485468751 12.628368704999998 Z" stroke-miterlimit="10" stroke-width="3.01572984" stroke-dasharray=""/></g><g><g/><text fill="black" stroke="none" font-family="sans-serif" font-size="11pt" font-style="normal" font-weight="normal" text-decoration="normal" x="701.2583665243751" y="44.67049825500001" text-anchor="start" dominant-baseline="alphabetic" xml:space="preserve">Services</text></g></g><g><path fill="white" stroke="black" paint-order="fill stroke markers" d=" M 33.79514454000001 125.718237705 L 52.643456040000004 125.718237705 L 52.643456040000004 596.9260252050001 L 33.79514454000001 596.9260252050001 L 33.79514454000001 125.718237705" stroke-miterlimit="10" stroke-width="1.5706926250000002" stroke-dasharray=""/><path fill="white" stroke="black" paint-order="fill stroke markers" d=" M 433.18562782125 308.546859255 L 452.03393932125005 308.546859255 L 452.03393932125005 596.9260252050001 L 433.18562782125 596.9260252050001 L 433.18562782125 308.546859255" stroke-miterlimit="10" stroke-width="1.5706926250000002" stroke-dasharray=""/><g><g><rect fill="white" stroke="none" x="74.94729131500004" y="101.21543275500001" width="242.07295048125" height="24.50280495"/></g><text fill="black" stroke="none" font-family="sans-serif" font-size="11pt" font-style="normal" font-weight="normal" text-decoration="normal" x="77.77453804000004" y="118.17891310500002" text-anchor="start" dominant-baseline="alphabetic" xml:space="preserve">Получение списка сертификатов</text></g><g><path fill="none" stroke="black" paint-order="fill stroke markers" d=" M 52.643456040000004 125.718237705 L 336.18269182125005 125.718237705" stroke-miterlimit="10" stroke-width="1.5706926250000002" stroke-dasharray=""/><g transform="translate(339.32407707125003,125.718237705) translate(-339.32407707125003,-125.718237705)"><path fill="black" stroke="none" paint-order="stroke fill markers" d=" M 323.61715082125005 117.86477458 L 339.32407707125003 125.718237705 L 323.61715082125005 133.57170083 Z"/><g transform="translate(52.643456040000004,125.718237705) translate(-52.643456040000004,-125.718237705)"><path fill="black" stroke="none" paint-order="stroke fill markers" d=" M 68.35038229 117.86477458 L 52.643456040000004 125.718237705 L 68.35038229 133.57170083 Z"/></g></g></g><g><g><rect fill="white" stroke="none" x="74.947291315" y="153.990704955" width="149.75849735625" height="24.50280495"/></g><text fill="black" stroke="none" font-family="sans-serif" font-size="11pt" font-style="normal" font-weight="normal" text-decoration="normal" x="77.77453804" y="170.954185305" text-anchor="start" dominant-baseline="alphabetic" xml:space="preserve">Выбор сертификата</text></g><g><path fill="none" stroke="black" paint-order="fill stroke markers" d=" M 52.643456040000004 178.493509905 L 128.03670204000002 178.493509905 L 128.03670204000002 202.996314855 L 55.78484129 202.996314855" stroke-miterlimit="10" stroke-width="1.5706926250000002" stroke-dasharray=""/><g transform="translate(52.643456040000004,202.996314855) translate(-52.643456040000004,-202.996314855)"><path fill="black" stroke="none" paint-order="stroke fill markers" d=" M 68.35038229 195.14285173000002 L 52.643456040000004 202.996314855 L 68.35038229 210.84977798 Z"/><g transform="translate(52.643456040000004,202.996314855) translate(-52.643456040000004,-202.996314855)"><path fill="black" stroke="none" paint-order="stroke fill markers" d=" M 68.35038229 195.14285173000002 L 52.643456040000004 202.996314855 L 68.35038229 210.84977798 Z"/></g></g></g><g><g><rect fill="white" stroke="none" x="113.86086553375004" y="231.26878210499999" width="164.24580204375" height="24.50280495"/></g><text fill="black" stroke="none" font-family="sans-serif" font-size="11pt" font-style="normal" font-weight="normal" text-decoration="normal" x="116.68811225875004" y="248.23226245499998" text-anchor="start" dominant-baseline="alphabetic" xml:space="preserve">Подпись сертификата</text></g><g><path fill="none" stroke="black" paint-order="fill stroke markers" d=" M 52.643456040000004 255.771587055 L 336.18269182125005 255.771587055" stroke-miterlimit="10" stroke-width="1.5706926250000002" stroke-dasharray=""/><g transform="translate(339.32407707125003,255.771587055) translate(-339.32407707125003,-255.771587055)"><path fill="black" stroke="none" paint-order="stroke fill markers" d=" M 323.61715082125005 247.91812393 L 339.32407707125003 255.771587055 L 323.61715082125005 263.62505018 Z"/><g transform="translate(52.643456040000004,255.771587055) translate(-52.643456040000004,-255.771587055)"><path fill="black" stroke="none" paint-order="stroke fill markers" d=" M 68.35038229 247.91812393 L 52.643456040000004 255.771587055 L 68.35038229 263.62505018 Z"/></g></g></g><g><g><rect fill="white" stroke="none" x="223.40638700250003" y="284.04405430500003" width="39.016309856250004" height="24.50280495"/></g><text fill="black" stroke="none" font-family="sans-serif" font-size="11pt" font-style="normal" font-weight="normal" text-decoration="normal" x="226.23363372750003" y="301.00753465500003" text-anchor="start" dominant-baseline="alphabetic" xml:space="preserve">/auth</text></g><g><path fill="none" stroke="black" paint-order="fill stroke markers" d=" M 52.643456040000004 308.546859255 L 430.04424257125004 308.546859255" stroke-miterlimit="10" stroke-width="1.5706926250000002" stroke-dasharray=""/><g transform="translate(433.18562782125,308.546859255) translate(-433.18562782125,-308.546859255)"><path fill="black" stroke="none" paint-order="stroke fill markers" d=" M 417.47870157125004 300.69339613 L 433.18562782125 308.546859255 L 417.47870157125004 316.40032238000003 Z"/></g></g><g><g><rect fill="white" stroke="none" x="474.33777459625003" y="336.819326505" width="249.082227825" height="24.50280495"/></g><text fill="black" stroke="none" font-family="sans-serif" font-size="11pt" font-style="normal" font-weight="normal" text-decoration="normal" x="477.16502132125004" y="353.782806855" text-anchor="start" dominant-baseline="alphabetic" xml:space="preserve">Проверка сертификата и подписи</text></g><g><path fill="none" stroke="black" paint-order="fill stroke markers" d=" M 452.03393932125005 361.32213145500003 L 527.42718532125 361.32213145500003 L 527.42718532125 385.824936405 L 455.17532457125003 385.824936405" stroke-miterlimit="10" stroke-width="1.5706926250000002" stroke-dasharray=""/><g transform="translate(452.03393932125005,385.824936405) translate(-452.03393932125005,-385.824936405)"><path fill="black" stroke="none" paint-order="stroke fill markers" d=" M 467.74086557125 377.97147328 L 452.03393932125005 385.824936405 L 467.74086557125 393.67839953000004 Z"/></g></g><g><g><rect fill="white" stroke="none" x="484.81316889312507" y="414.09740365500005" width="212.42451298125" height="24.50280495"/></g><text fill="black" stroke="none" font-family="sans-serif" font-size="11pt" font-style="normal" font-weight="normal" text-decoration="normal" x="487.6404156181251" y="431.06088400500005" text-anchor="start" dominant-baseline="alphabetic" xml:space="preserve">Проверка/создание профиля</text></g><g><path fill="none" stroke="black" paint-order="fill stroke markers" d=" M 452.03393932125005 438.60020860500003 L 726.8755261962501 438.60020860500003" stroke-miterlimit="10" stroke-width="1.5706926250000002" stroke-dasharray=""/><g transform="translate(730.0169114462501,438.60020860500003) translate(-730.0169114462501,-438.60020860500003)"><path fill="black" stroke="none" paint-order="stroke fill markers" d=" M 714.3099851962501 430.74674548 L 730.0169114462501 438.60020860500003 L 714.3099851962501 446.45367173000005 Z"/><g transform="translate(452.03393932125005,438.60020860500003) translate(-452.03393932125005,-438.60020860500003)"><path fill="black" stroke="none" paint-order="stroke fill markers" d=" M 467.74086557125 430.74674548 L 452.03393932125005 438.60020860500003 L 467.74086557125 446.45367173000005 Z"/></g></g></g><g><g><rect fill="white" stroke="none" x="228.133113315" y="466.87267585500007" width="38.987012981250004" height="24.50280495"/></g><text fill="black" stroke="none" font-family="sans-serif" font-size="11pt" font-style="normal" font-weight="normal" text-decoration="normal" x="230.96036004" y="483.83615620500007" text-anchor="start" dominant-baseline="alphabetic" xml:space="preserve">Error</text></g><g><path fill="none" stroke="red" paint-order="fill stroke markers" d=" M 433.18562782125 491.37548080500005 L 71.49176754 491.37548080500005" stroke-miterlimit="10" stroke-width="1.5706926250000002" stroke-dasharray=""/><path fill="none" stroke="red" paint-order="fill stroke markers" d=" M 62.06761179 481.95132505500004 L 80.91592329 500.79963655500006 M 62.06761179 500.79963655500006 L 80.91592329 481.95132505500004" stroke-miterlimit="10" stroke-width="1.5706926250000002"/></g><g><g><rect fill="white" stroke="none" x="171.35682645562503" y="519.647948055" width="143.11543095" height="24.50280495"/></g><text fill="black" stroke="none" font-family="sans-serif" font-size="11pt" font-style="normal" font-weight="normal" text-decoration="normal" x="174.18407318062503" y="536.6114284050001" text-anchor="start" dominant-baseline="alphabetic" xml:space="preserve">Ответ: token, nonce</text></g><g><path fill="none" stroke="black" paint-order="fill stroke markers" d=" M 433.18562782125 544.1507530050001 L 55.78484129 544.1507530050001" stroke-miterlimit="10" stroke-width="1.5706926250000002" stroke-dasharray="7.5393246000000005"/><g transform="translate(52.643456040000004,544.1507530050001) translate(-52.643456040000004,-544.1507530050001)"><path fill="black" stroke="none" paint-order="stroke fill markers" d=" M 68.35038229 536.2972898800001 L 52.643456040000004 544.1507530050001 L 68.35038229 552.00421613 Z"/></g></g><g><g><rect fill="white" stroke="none" x="140.46242803375003" y="572.423220255" width="111.04267704375" height="24.50280495"/></g><text fill="black" stroke="none" font-family="sans-serif" font-size="11pt" font-style="normal" font-weight="normal" text-decoration="normal" x="143.28967475875004" y="589.3867006050001" text-anchor="start" dominant-baseline="alphabetic" xml:space="preserve">Подпись nonce</text></g><g><path fill="none" stroke="black" paint-order="fill stroke markers" d=" M 52.643456040000004 596.9260252050001 L 336.18269182125005 596.9260252050001" stroke-miterlimit="10" stroke-width="1.5706926250000002" stroke-dasharray=""/><g transform="translate(339.32407707125003,596.9260252050001) translate(-339.32407707125003,-596.9260252050001)"><path fill="black" stroke="none" paint-order="stroke fill markers" d=" M 323.61715082125005 589.0725620800001 L 339.32407707125003 596.9260252050001 L 323.61715082125005 604.77948833 Z"/><g transform="translate(52.643456040000004,596.9260252050001) translate(-52.643456040000004,-596.9260252050001)"><path fill="black" stroke="none" paint-order="stroke fill markers" d=" M 68.35038229 589.0725620800001 L 52.643456040000004 596.9260252050001 L 68.35038229 604.77948833 Z"/></g></g></g></g><g/><g/><g/><g/></g></svg>